<svg xmlns="http://www.w3.org/2000/svg" viewBox="0 0 17.73 22.5" width="27" height="34"><path d="M8.95 0h-.09L0 .94v16.29l8.86 5.27 8.86-5.27V.94L8.95 0zm7.65 16.56l-7.74 4.59-7.74-4.59V9.9l7.7 4.59v.81l-5.27-3.15v.81l5.31 3.2v.85l-5.31-3.15v.81l5.31 3.15 5.36-3.19v-3.42l2.38-1.44v6.79zm-.04-7.65l-2.12 1.26-.99.59-4.63-2.75v.81l3.96 2.39h-.04l-.09.05-.59.32-3.28-1.95v.81l2.61 1.53-.63.4-1.94-1.17v.81l1.31.76-1.3.77L1.17 9l7.65-4.59 7.74 4.5zm.04-.81L8.82 3.51 1.12 8.1V1.98l7.74-.81 7.74.81V8.1z"/></svg>