<svg xmlns="http://www.w3.org/2000/svg" xmlns:xlink="http://www.w3.org/1999/xlink"><symbol id="icon-editor-contrast" viewBox="0 0 31.92 31.92"><path d="M15.96 4c6.59 0 11.96 5.37 11.96 11.96s-5.37 11.96-11.96 11.96S4 22.55 4 15.96 9.36 4 15.96 4m0-4C7.15 0 0 7.14 0 15.96c0 8.81 7.15 15.96 15.96 15.96s15.96-7.15 15.96-15.96C31.92 7.14 24.77 0 15.96 0z"/><path d="M15.96 24.29c4.71 0 8.52-3.81 8.52-8.52s-3.81-8.52-8.52-8.52"/></symbol><symbol id="icon-editor-crop"><path d="M0 0h48v48H0V0z" fill="none"/><path d="M34 30h4V14c0-2.21-1.79-4-4-4H18v4h16v16zm-20 4V2h-4v8H2v4h8v20c0 2.21 1.79 4 4 4h20v8h4v-8h8v-4H14z"/></symbol><symbol id="icon-editor-fill"><path d="M0 0h48v48H0V0z" fill="none"/><path d="M33.12 17.88L15.24 0l-2.83 2.83 4.76 4.76L6.88 17.88a3 3 0 000 4.24l11 11c.58.59 1.35.88 2.12.88s1.54-.29 2.12-.88l11-11a3 3 0 000-4.24zM10.41 20L20 10.42 29.59 20H10.41zM38 23s-4 4.33-4 7c0 2.21 1.79 4 4 4s4-1.79 4-4c0-2.67-4-7-4-7zM0 40h48v3H0z"/></symbol><symbol id="icon-facebook" viewBox="0 0 8.67 18.94"><path d="M6.27 3.36h2.4V0H5.8C2.66.18 1.54 2.39 1.95 6.12H0v3.52h1.96v9.31H5.8V9.64h2.86V6.12H5.79c-.02-1.05-.04-2.41.48-2.76z"/></symbol><symbol id="icon-twitter" viewBox="0 0 17.5 14.66"><path d="M11.28.15c1.74-.48 3.07.26 3.68 1.15.69-.23 1.37-.47 2.07-.69 0 .84-.54 1.48-.88 1.73.7.17 1.34-.48 1.34-.48-.17.98-1.04 1.75-1.61 1.98-.24 6.59-3.27 10.96-10.38 10.82h-.46c-.42 0-4.29-.45-5.05-1.84 2.34.19 4.01-.41 4.84-1.15-.99-.29-2.76-.46-3.07-2.88.36.1.58.22 1.23.12C1.76 8.07.38 7.37.46 5.22c.29.32 1.1.52 1.38.46C1.12 5.44-.19 2.4.92.84c1.87 1.81 3.85 3.52 7.37 3.69C8.51 2.29 9.46.79 11.28.15z"/></symbol><symbol id="icon-youtube" viewBox="0 0 14.64 13.96"><path d="M1.78 13.78C.8 14.26 0 13.76 0 12.67V1.29C0 .2.8-.29 1.78.18l12.13 5.93c.97.48.97 1.26 0 1.74L1.78 13.78z"/></symbol><symbol id="logo-htmlacademy" viewBox="0 0 17.73 22.5"><path d="M8.95 0h-.09L0 .94v16.29l8.86 5.27 8.86-5.27V.94L8.95 0zm7.65 16.56l-7.74 4.59-7.74-4.59V9.9l7.7 4.59v.81l-5.27-3.15v.81l5.31 3.2v.85l-5.31-3.15v.81l5.31 3.15 5.36-3.19v-3.42l2.38-1.44v6.79zm-.04-7.65l-2.12 1.26-.99.59-4.63-2.75v.81l3.96 2.39h-.04l-.09.05-.59.32-3.28-1.95v.81l2.61 1.53-.63.4-1.94-1.17v.81l1.31.76-1.3.77L1.17 9l7.65-4.59 7.74 4.5zm.04-.81L8.82 3.51 1.12 8.1V1.98l7.74-.81 7.74.81V8.1z"/></symbol></svg>