<svg xmlns="http://www.w3.org/2000/svg" xml:space="preserve" style="enable-background:new 0 0 298 345.1" viewBox="0 0 298 345.1">
  <path d="m264.57 102.06 5.35-5.35c7.72-7.72 9.12-18.94 3.13-24.94-6-6-17.22-4.59-24.93 3.13l-5.39 5.38C221.77 63.29 196.11 51.88 168 48.3v-9.58h7.66c10.91 0 19.84-8.71 19.84-19.36S186.57 0 175.66 0h-53.32c-10.91 0-19.84 8.71-19.84 19.36s8.93 19.36 19.84 19.36H130v9.58C56.68 57.63 0 120.24 0 196.1c0 82.29 66.71 149 149 149s149-66.71 149-149c0-35.67-12.54-68.4-33.43-94.04zM149 306.26c-60.84 0-110.17-49.32-110.17-110.17 0-60.84 49.32-110.17 110.17-110.17 60.84 0 110.17 49.32 110.17 110.17S209.84 306.26 149 306.26z" style="fill:#dedede"/>
</svg>
