<svg xmlns="http://www.w3.org/2000/svg" xml:space="preserve" id="Layer_1" x="0" y="0" style="enable-background:new 0 0 42.08 47.04" version="1.1" width="42" height="47" viewBox="0 0 42.08 47.04">
  <style>
    .st0{fill:#a4c639}
  </style>
  <path d="M34.14 14.01H7.94c-.01.11-.02.22-.02.33V33.1c0 1.93 1.46 3.49 3.32 3.63v7.43c0 1.59 1.29 2.88 2.88 2.88 1.59 0 2.89-1.29 2.89-2.88v-7.42h8.06v7.42c0 1.59 1.29 2.88 2.88 2.88 1.59 0 2.89-1.29 2.89-2.88v-7.43c1.86-.14 3.32-1.7 3.32-3.63V14.34c0-.11-.01-.22-.02-.33z" class="st0"/>
  <path id="c-4-9-2-9-2-9" d="M2.89 15.68c1.59 0 2.89 1.29 2.89 2.88v12.38c0 1.59-1.29 2.89-2.89 2.89S0 32.54 0 30.94V18.56c0-1.59 1.29-2.88 2.89-2.88z" class="st0"/>
  <path id="c-4-1-7-3-8-4" d="M39.2 15.68c1.59 0 2.89 1.29 2.89 2.88v12.38c0 1.59-1.29 2.89-2.89 2.89-1.59 0-2.88-1.29-2.88-2.89V18.56c-.01-1.59 1.28-2.88 2.88-2.88z" class="st0"/>
  <path d="M8.03 11.97h26.03c-.04-2.78-1.23-5.32-3.19-7.27L33.32.47c.08-.15.03-.33-.11-.41-.15-.08-.33-.03-.42.11l-2.37 4.11c-2.05-1.85-6.25-3.4-9.37-3.4-3.02 0-7.32 1.55-9.37 3.4L9.3.15c-.09-.14-.27-.19-.42-.11-.14.09-.19.27-.11.42l2.44 4.23c-1.94 1.96-3.14 4.49-3.18 7.28zM25.32 6.8c0-.81.66-1.46 1.49-1.46s1.49.65 1.5 1.45v.01c0 .8-.66 1.46-1.49 1.46-.82.01-1.49-.64-1.5-1.46 0 .01 0 .01 0 0zm-11.14 0c0-.81.66-1.46 1.49-1.46.82 0 1.49.65 1.5 1.45v.01c0 .8-.66 1.46-1.49 1.46-.83.01-1.5-.64-1.5-1.46 0 .01 0 .01 0 0z" class="st0"/>
</svg>
